<?xml version="1.0" standalone="no"?>
<!DOCTYPE svg PUBLIC "-//W3C//DTD SVG 20010904//EN"
 "http://www.w3.org/TR/2001/REC-SVG-20010904/DTD/svg10.dtd">
<svg version="1.0" xmlns="http://www.w3.org/2000/svg"
 width="500.000000pt" height="500.000000pt" viewBox="0 0 500.000000 500.000000"
 preserveAspectRatio="xMidYMid meet">

<g transform="translate(0.000000,500.000000) scale(0.100000,-0.100000)"
fill="#000000" stroke="none">
<path d="M1242 3908 c-11 -18 -196 -342 -412 -720 l-393 -688 410 -717 411
-718 413 -2 414 -3 413 723 c747 1309 817 1429 826 1429 6 0 102 -160 214
-356 l203 -356 -184 -322 c-101 -178 -283 -497 -405 -710 -122 -213 -222 -392
-222 -398 0 -7 131 -10 404 -10 l405 0 411 720 411 720 -409 717 -410 718
-414 3 -413 2 -615 -1076 c-338 -592 -619 -1077 -625 -1077 -5 1 -101 161
-213 357 l-205 356 394 687 c216 379 401 703 412 721 l19 32 -410 0 -410 0
-20 -32z"/>
</g>
</svg>
