<svg xmlns="http://www.w3.org/2000/svg" xmlns:xlink="http://www.w3.org/1999/xlink" width="500" zoomAndPan="magnify" viewBox="0 0 375 374.999991" height="500" preserveAspectRatio="xMidYMid meet" version="1.0"><defs><clipPath id="b7fc5a4ead"><path d="M 15.390625 52.046875 L 359.324219 52.046875 L 359.324219 322.796875 L 15.390625 322.796875 Z M 15.390625 52.046875 " clip-rule="nonzero"/></clipPath><clipPath id="4648bed4be"><path d="M 187.5 124.796875 L 196.371094 124.796875 L 196.371094 133.667969 L 187.5 133.667969 Z M 187.5 124.796875 " clip-rule="nonzero"/></clipPath><clipPath id="cf27f79adb"><path d="M 191.933594 124.796875 C 189.484375 124.796875 187.5 126.785156 187.5 129.234375 C 187.5 131.683594 189.484375 133.667969 191.933594 133.667969 C 194.386719 133.667969 196.371094 131.683594 196.371094 129.234375 C 196.371094 126.785156 194.386719 124.796875 191.933594 124.796875 Z M 191.933594 124.796875 " clip-rule="nonzero"/></clipPath></defs><g clip-path="url(#b7fc5a4ead)"><path fill="#000000" d="M 268.261719 101.082031 C 274.535156 101.082031 274.535156 91.34375 268.261719 91.34375 C 262.003906 91.34375 261.992188 101.082031 268.261719 101.082031 Z M 110.441406 99.574219 C 116.707031 99.574219 116.71875 89.832031 110.441406 89.832031 C 104.179688 89.832031 104.167969 99.574219 110.441406 99.574219 Z M 85.902344 136.59375 C 92.164062 136.59375 92.175781 126.851562 85.902344 126.851562 C 79.636719 126.851562 79.625 136.59375 85.902344 136.59375 Z M 156.882812 116.792969 C 163.140625 116.792969 163.164062 107.054688 156.882812 107.054688 C 150.625 107.054688 150.609375 116.792969 156.882812 116.792969 Z M 173.496094 76.53125 C 179.765625 76.53125 179.765625 66.789062 173.496094 66.789062 C 167.238281 66.789062 167.222656 76.53125 173.496094 76.53125 Z M 257.316406 138.484375 C 263.585938 138.484375 263.597656 128.742188 257.316406 128.742188 C 251.054688 128.742188 251.042969 138.484375 257.316406 138.484375 Z M 225.984375 87.109375 C 232.242188 87.109375 232.257812 77.367188 225.984375 77.367188 C 219.714844 77.367188 219.703125 87.109375 225.984375 87.109375 Z M 187.363281 61.773438 C 109.25 61.773438 45.703125 100.9375 45.703125 149.082031 L 45.703125 153.265625 C 45.703125 158.125 49.652344 162.074219 54.507812 162.074219 L 320.226562 162.074219 C 325.074219 162.074219 329.023438 158.125 329.023438 153.265625 L 329.023438 149.082031 C 329.023438 100.9375 265.476562 61.773438 187.367188 61.773438 Z M 320.222656 171.800781 L 54.503906 171.800781 C 44.292969 171.800781 35.980469 163.484375 35.980469 153.265625 L 35.980469 149.082031 C 35.980469 122.730469 52.03125 98.117188 81.167969 79.789062 C 109.609375 61.898438 147.316406 52.046875 187.363281 52.046875 C 227.40625 52.046875 265.117188 61.894531 293.558594 79.789062 C 322.699219 98.117188 338.742188 122.730469 338.742188 149.082031 L 338.742188 153.265625 C 338.742188 163.484375 330.429688 171.800781 320.222656 171.800781 Z M 345.730469 188.589844 C 346.375 188.09375 346.15625 188.289062 345.4375 188.761719 C 344.417969 189.429688 343.382812 190.074219 342.316406 190.671875 C 339.128906 192.410156 335.65625 193.699219 332.058594 194.28125 C 326.710938 195.15625 321.265625 194.355469 316.390625 191.984375 C 310.875 189.308594 306.585938 184.871094 300.886719 182.4375 C 289.023438 177.355469 274.671875 179.835938 265.007812 188.433594 C 264.898438 188.519531 264.742188 188.628906 264.535156 188.761719 C 263.511719 189.429688 262.480469 190.074219 261.410156 190.671875 C 258.226562 192.410156 254.738281 193.699219 251.15625 194.28125 C 245.808594 195.15625 240.363281 194.355469 235.488281 191.984375 C 229.96875 189.308594 225.667969 184.871094 219.980469 182.4375 C 208.121094 177.355469 193.765625 179.835938 184.105469 188.433594 C 183.996094 188.519531 183.835938 188.628906 183.632812 188.761719 C 182.609375 189.429688 181.566406 190.074219 180.496094 190.671875 C 177.3125 192.410156 173.835938 193.699219 170.25 194.28125 C 164.902344 195.15625 159.445312 194.355469 154.574219 191.984375 C 149.054688 189.308594 144.765625 184.871094 139.078125 182.4375 C 127.207031 177.355469 112.851562 179.835938 103.203125 188.433594 C 103.085938 188.519531 102.929688 188.628906 102.722656 188.761719 C 101.695312 189.429688 100.667969 190.074219 99.589844 190.671875 C 96.40625 192.410156 92.921875 193.699219 89.339844 194.28125 C 83.992188 195.15625 78.539062 194.355469 73.667969 191.984375 C 68.15625 189.308594 63.859375 184.871094 58.167969 182.4375 C 46.222656 177.332031 31.753906 179.859375 22.101562 188.589844 C 17.445312 192.8125 24.347656 199.667969 28.988281 195.472656 C 31.9375 192.8125 36.898438 190.5625 41.195312 189.796875 C 53.730469 187.535156 60.996094 197.25 71.484375 201.636719 C 84.199219 206.953125 99.246094 203.960938 109.894531 195.472656 C 112.847656 192.8125 117.808594 190.5625 122.101562 189.796875 C 134.636719 187.535156 141.910156 197.25 152.398438 201.636719 C 165.109375 206.953125 180.15625 203.960938 190.800781 195.472656 C 193.753906 192.8125 198.710938 190.5625 203.015625 189.796875 C 215.542969 187.535156 222.8125 197.25 233.300781 201.636719 C 246.011719 206.953125 261.058594 203.960938 271.714844 195.472656 C 274.671875 192.8125 279.617188 190.5625 283.917969 189.796875 C 296.460938 187.535156 303.730469 197.25 314.21875 201.636719 C 326.917969 206.953125 341.976562 203.960938 352.621094 195.472656 C 357.519531 191.570312 350.589844 184.726562 345.730469 188.589844 Z M 31.996094 221.992188 C 28.203125 221.992188 25.117188 225.082031 25.117188 228.875 L 25.117188 235.207031 C 25.117188 239.003906 28.203125 242.089844 31.996094 242.089844 L 342.726562 242.089844 C 346.519531 242.089844 349.605469 239.003906 349.605469 235.207031 L 349.605469 228.875 C 349.605469 225.082031 346.519531 221.992188 342.726562 221.992188 Z M 342.726562 251.820312 L 31.996094 251.820312 C 22.84375 251.820312 15.394531 244.375 15.394531 235.207031 L 15.394531 228.875 C 15.394531 219.71875 22.84375 212.265625 31.996094 212.265625 L 342.726562 212.265625 C 351.878906 212.265625 359.328125 219.71875 359.328125 228.875 L 359.328125 235.207031 C 359.328125 244.375 351.878906 251.820312 342.726562 251.820312 Z M 54.503906 271.140625 C 49.648438 271.140625 45.699219 275.089844 45.699219 279.941406 L 45.699219 286.035156 C 45.699219 300.941406 57.820312 313.074219 72.730469 313.074219 L 301.984375 313.074219 C 316.898438 313.074219 329.015625 300.941406 329.015625 286.035156 L 329.015625 279.941406 C 329.015625 275.089844 325.066406 271.140625 320.214844 271.140625 Z M 301.992188 322.804688 L 72.734375 322.804688 C 52.464844 322.804688 35.980469 306.304688 35.980469 286.035156 L 35.980469 279.941406 C 35.980469 269.730469 44.292969 261.410156 54.507812 261.410156 L 320.226562 261.410156 C 330.433594 261.410156 338.746094 269.730469 338.746094 279.941406 L 338.746094 286.035156 C 338.746094 306.304688 322.265625 322.804688 301.996094 322.804688 " fill-opacity="1" fill-rule="nonzero"/></g><g clip-path="url(#4648bed4be)"><g clip-path="url(#cf27f79adb)"><path fill="#000000" d="M 187.5 124.796875 L 196.371094 124.796875 L 196.371094 133.667969 L 187.5 133.667969 Z M 187.5 124.796875 " fill-opacity="1" fill-rule="nonzero"/></g></g></svg>